<svg id="Capa_1" data-name="Capa 1" xmlns="http://www.w3.org/2000/svg" viewBox="0 0 99.84 36.01"><defs><style>.cls-1{fill:#00aac9;fill-rule:evenodd;}.cls-2{fill:#231f20;}.cls-3{fill:#ffe600;}</style></defs><title>Logo 162x39</title><polygon class="cls-1" points="0 4.53 2.11 4.53 5.29 13.21 8.45 4.53 10.56 4.53 6.05 15.7 4.23 15.7 0 4.53"/><path class="cls-1" d="M47,2.17V3.73h-2V2.17Zm0,3.92V17.26h-2V6.09Z" transform="translate(-32.05 -1.56)"/><path class="cls-1" d="M58.58,15.35a12.86,12.86,0,0,1-2.76.32c-2.85,0-4.29-1.39-4.29-4.17,0-2.5,1.44-3.75,4.29-3.75a12.79,12.79,0,0,1,2.76.32V6.48a13.79,13.79,0,0,0-3-.31c-4,0-6,1.77-6,5.33,0,3.83,2,5.75,6,5.75a13.72,13.72,0,0,0,3-.31Z" transform="translate(-32.05 -1.56)"/><path class="cls-1" d="M65.67,12.76q3.33,0,3.33-4T65.67,4.84c-2.22,0-3.32,1.31-3.32,3.92S63.45,12.76,65.67,12.76Zm-5.28-4q0-5.53,5.28-5.54T71,8.8q0,5.54-5.28,5.53Q60.63,14.33,60.39,8.8Z" transform="translate(-32.05 -1.56)"/><path class="cls-1" d="M73.68,17.26V6.09h1.23l.33,1.43A6.36,6.36,0,0,1,79,6.15a3.13,3.13,0,0,1,3,1.53,7,7,0,0,1,4-1.52c2.34,0,3.54,1.41,3.54,4.22v6.88h-2v-7c0-1.65-.74-2.48-2.13-2.48a4.22,4.22,0,0,0-3,1.44v8h-2v-7c0-1.68-.63-2.52-2-2.52a3.68,3.68,0,0,0-2.89,1.44v8Z" transform="translate(-32.05 -1.56)"/><path class="cls-1" d="M92.69,4.32h1.18l.42,1.77H96.8V7.85H94.65v6.27c0,1,.39,1.57,1.29,1.57h.86v1.57H95.43c-1.86,0-2.74-1-2.74-3Z" transform="translate(-32.05 -1.56)"/><path class="cls-1" d="M108.4,12.36h-7.47c0,2.15,1.44,3.35,4.3,3.35a14.07,14.07,0,0,0,2.94-.36v1.59a17.46,17.46,0,0,1-3.58.31c-3.73,0-5.61-1.89-5.61-5.67,0-3.61,1.77-5.37,5.31-5.37C107.68,6.21,109.05,8.24,108.4,12.36Zm-7.47-1.77h5.68c.1-2-.78-2.91-2.64-2.91A2.73,2.73,0,0,0,100.93,10.59Z" transform="translate(-32.05 -1.56)"/><path class="cls-1" d="M119.93,15.35a12.79,12.79,0,0,1-2.76.32q-4.28,0-4.28-4.17,0-3.75,4.28-3.75a12.79,12.79,0,0,1,2.76.32V6.48a13.72,13.72,0,0,0-3-.31c-4,0-6,1.77-6,5.33q0,5.75,6,5.75a13.72,13.72,0,0,0,3-.31Z" transform="translate(-32.05 -1.56)"/><path class="cls-1" d="M122.28,17.26V2.17h2v5.2A6.6,6.6,0,0,1,128,6.17c2.56,0,3.85,1.37,3.85,4.13v7h-2v-7a2.19,2.19,0,0,0-2.47-2.47,4.63,4.63,0,0,0-3.21,1.41v8.06Z" transform="translate(-32.05 -1.56)"/><path class="cls-1" d="M76.57,4.05a24.66,24.66,0,0,0-20.82-.37l0,1.85a24.66,24.66,0,0,1,20.82.37Z" transform="translate(-32.05 -1.56)"/><path class="cls-2" d="M36.38,23.09H37l1,1.64,1-1.64h.6v3.48H39v-2.5l-1,1.64h0l-1-1.63v2.49h-.56Z" transform="translate(-32.05 -1.56)"/><path class="cls-2" d="M40.25,23.09h2.39v.55H40.81v.9h1.62v.55H40.81V26h1.85v.55H40.25Z" transform="translate(-32.05 -1.56)"/><path class="cls-2" d="M43.2,23.09h.6l1,1.64,1-1.64h.6v3.48H45.8v-2.5l-1,1.64h0l-1-1.63v2.49H43.2Z" transform="translate(-32.05 -1.56)"/><path class="cls-2" d="M47.06,23.09h1.45a1.13,1.13,0,0,1,.85.31.8.8,0,0,1,.21.57h0a.84.84,0,0,1-.46.78.83.83,0,0,1,.64.84h0c0,.62-.47,1-1.19,1h-1.5Zm1.95,1c0-.27-.21-.44-.57-.44h-.82v.92h.78c.36,0,.61-.15.61-.47Zm-.49,1h-.9v1h.94c.39,0,.63-.17.63-.48h0C49.19,25.25,49,25.07,48.52,25.07Z" transform="translate(-32.05 -1.56)"/><path class="cls-2" d="M50.26,23.09h2.39v.55H50.82v.9h1.62v.55H50.82V26h1.85v.55H50.26Z" transform="translate(-32.05 -1.56)"/><path class="cls-2" d="M53.21,23.09h1.44a1.24,1.24,0,0,1,.93.35,1.09,1.09,0,0,1,.27.75h0a1,1,0,0,1-.77,1.05L56,26.57h-.67l-.79-1.21h-.71v1.21h-.57Zm1.4,1.72a.59.59,0,0,0,.66-.58h0c0-.37-.25-.57-.67-.57h-.82v1.16Z" transform="translate(-32.05 -1.56)"/><path class="cls-2" d="M57.51,24.84h0a1.69,1.69,0,1,1,3.38,0h0a1.72,1.72,0,0,1-1.7,1.8A1.7,1.7,0,0,1,57.51,24.84Zm2.78,0h0a1.16,1.16,0,0,0-1.1-1.24,1.13,1.13,0,0,0-1.08,1.23h0a1.1,1.1,0,1,0,2.18,0Z" transform="translate(-32.05 -1.56)"/><path class="cls-2" d="M61.44,23.09h2.4v.56H62v.94h1.63v.56H62v1.42h-.56Z" transform="translate(-32.05 -1.56)"/><path class="cls-2" d="M65.57,23.09H67a1.09,1.09,0,0,1,.84.31.77.77,0,0,1,.22.57h0a.84.84,0,0,1-.46.78.83.83,0,0,1,.64.84h0c0,.62-.48,1-1.19,1h-1.5Zm1.94,1c0-.27-.2-.44-.56-.44h-.82v.92h.77c.37,0,.61-.15.61-.47Zm-.48,1h-.9v1h.94c.39,0,.62-.17.62-.48h0C67.69,25.25,67.48,25.07,67,25.07Z" transform="translate(-32.05 -1.56)"/><path class="cls-2" d="M69.91,23.06h.52l1.42,3.51h-.6l-.32-.84H69.4l-.33.84h-.58Zm.81,2.13-.56-1.4-.55,1.4Z" transform="translate(-32.05 -1.56)"/><path class="cls-2" d="M72,26.06l.34-.44a1.44,1.44,0,0,0,1,.46c.35,0,.57-.18.57-.44h0c0-.25-.13-.38-.73-.53s-1.07-.4-1.07-1h0a1,1,0,0,1,1.1-1,1.68,1.68,0,0,1,1.17.44l-.3.46a1.37,1.37,0,0,0-.88-.36c-.33,0-.53.18-.53.41h0c0,.27.15.39.77.55s1,.44,1,1h0a1,1,0,0,1-1.16,1A1.92,1.92,0,0,1,72,26.06Z" transform="translate(-32.05 -1.56)"/><path class="cls-2" d="M77.94,26.67l-.39-.37a1.63,1.63,0,0,1-1,.33,1.7,1.7,0,0,1-1.68-1.79h0a1.69,1.69,0,1,1,3.37,0h0a2,2,0,0,1-.32,1.07l.36.33Zm-.8-.77-.56-.51.36-.45.57.56a1.4,1.4,0,0,0,.16-.66h0a1.16,1.16,0,0,0-1.1-1.24,1.14,1.14,0,0,0-1.09,1.23h0a1.16,1.16,0,0,0,1.1,1.23A1,1,0,0,0,77.14,25.9Z" transform="translate(-32.05 -1.56)"/><path class="cls-2" d="M78.76,25.09v-2h.57v2c0,.64.31,1,.82,1s.81-.33.81-1v-2h.56v2c0,1-.54,1.56-1.38,1.56S78.76,26.1,78.76,25.09Z" transform="translate(-32.05 -1.56)"/><path class="cls-2" d="M82.17,23.09h2.39v.55H82.73v.9h1.62v.55H82.73V26h1.85v.55H82.17Z" transform="translate(-32.05 -1.56)"/><path class="cls-2" d="M86.37,23.09H87.8a1.26,1.26,0,0,1,.94.35,1.09,1.09,0,0,1,.26.75h0a1,1,0,0,1-.76,1.05l.87,1.32h-.67l-.8-1.21h-.71v1.21h-.56Zm1.39,1.72a.59.59,0,0,0,.67-.58h0c0-.37-.25-.57-.67-.57h-.83v1.16Z" transform="translate(-32.05 -1.56)"/><path class="cls-2" d="M89.56,23.09H92v.55H90.13v.9h1.62v.55H90.13V26H92v.55H89.56Z" transform="translate(-32.05 -1.56)"/><path class="cls-2" d="M92.3,26.06l.34-.44a1.44,1.44,0,0,0,1,.46c.35,0,.57-.18.57-.44h0c0-.25-.13-.38-.73-.53s-1.07-.4-1.07-1h0a1,1,0,0,1,1.1-1,1.68,1.68,0,0,1,1.17.44l-.3.46a1.37,1.37,0,0,0-.88-.36c-.33,0-.52.18-.52.41h0c0,.27.14.39.77.55s1,.44,1,1h0a1,1,0,0,1-1.15,1A1.93,1.93,0,0,1,92.3,26.06Z" transform="translate(-32.05 -1.56)"/><path class="cls-2" d="M95.33,23.09h2.39v.55H95.9v.9h1.62v.55H95.9V26h1.85v.55H95.33Z" transform="translate(-32.05 -1.56)"/><path class="cls-2" d="M99.43,23.06H100l1.42,3.51h-.6l-.32-.84H98.92l-.33.84H98Zm.81,2.13-.56-1.4-.55,1.4Z" transform="translate(-32.05 -1.56)"/><path class="cls-2" d="M101.79,23.09h1.44a1.25,1.25,0,0,1,.93.35,1.09,1.09,0,0,1,.27.75h0a1,1,0,0,1-.77,1.05l.87,1.32h-.67l-.79-1.21h-.71v1.21h-.57Zm1.4,1.72a.59.59,0,0,0,.66-.58h0c0-.37-.25-.57-.67-.57h-.82v1.16Z" transform="translate(-32.05 -1.56)"/><path class="cls-2" d="M104.84,24.84h0a1.7,1.7,0,0,1,1.67-1.8,1.62,1.62,0,0,1,1.26.54l-.36.45a1.25,1.25,0,0,0-.91-.43,1.14,1.14,0,0,0-1.06,1.23h0a1.14,1.14,0,0,0,1.06,1.23,1.23,1.23,0,0,0,.93-.45l.37.4a1.62,1.62,0,0,1-1.31.62A1.69,1.69,0,0,1,104.84,24.84Z" transform="translate(-32.05 -1.56)"/><path class="cls-2" d="M108.35,23.09h.56v1.45h1.54V23.09H111v3.48h-.57V25.1h-1.54v1.47h-.56Z" transform="translate(-32.05 -1.56)"/><path class="cls-2" d="M38.19,31.69a1.37,1.37,0,0,1-1,.45,1,1,0,0,1-1.06-1h0a1.05,1.05,0,0,1,.69-1,1.2,1.2,0,0,1-.27-.72h0a.88.88,0,0,1,.93-.88.83.83,0,0,1,.86.84h0a1,1,0,0,1-.71.91l.55.6a4.66,4.66,0,0,0,.35-.67l.43.25a6.69,6.69,0,0,1-.44.79l.51.55-.42.33Zm-.33-.36-.72-.79a.63.63,0,0,0-.42.58h0a.5.5,0,0,0,.54.5A.83.83,0,0,0,37.86,31.33Zm0-1.89h0a.37.37,0,0,0-.37-.4.39.39,0,0,0-.39.42h0a.78.78,0,0,0,.25.52C37.67,29.85,37.85,29.69,37.85,29.44Z" transform="translate(-32.05 -1.56)"/><path class="cls-2" d="M41.31,29.18h-1v-.57H42.9v.57h-1v2.91h-.57Z" transform="translate(-32.05 -1.56)"/><path class="cls-2" d="M43.36,28.61h2.4v.55H43.93v.9h1.62v.55H43.93v.93h1.85v.55H43.36Z" transform="translate(-32.05 -1.56)"/><path class="cls-2" d="M46.17,30.36h0a1.7,1.7,0,0,1,1.67-1.8,1.65,1.65,0,0,1,1.26.54l-.36.46a1.26,1.26,0,0,0-.91-.44,1.14,1.14,0,0,0-1.06,1.23h0a1.14,1.14,0,0,0,1.06,1.23,1.25,1.25,0,0,0,.93-.44l.37.39a1.62,1.62,0,0,1-1.31.62A1.7,1.7,0,0,1,46.17,30.36Z" transform="translate(-32.05 -1.56)"/><path class="cls-2" d="M49.68,28.61h.56v1.45h1.54V28.61h.57v3.48h-.57V30.62H50.24v1.47h-.56Z" transform="translate(-32.05 -1.56)"/><path class="cls-2" d="M53.14,28.61h.52L55.39,31V28.61H56v3.48h-.48l-1.78-2.47v2.47h-.55Z" transform="translate(-32.05 -1.56)"/><path class="cls-2" d="M56.59,30.36h0a1.69,1.69,0,1,1,3.38,0h0a1.69,1.69,0,1,1-3.38,0Zm2.78,0h0a1.16,1.16,0,0,0-1.09-1.24,1.14,1.14,0,0,0-1.09,1.23h0a1.14,1.14,0,0,0,1.09,1.23A1.13,1.13,0,0,0,59.37,30.36Z" transform="translate(-32.05 -1.56)"/><path class="cls-2" d="M60.61,28.61h.57v2.92h1.7v.56H60.61Z" transform="translate(-32.05 -1.56)"/><path class="cls-2" d="M63.09,30.36h0a1.72,1.72,0,0,1,1.7-1.8,1.7,1.7,0,0,1,1.68,1.79h0a1.69,1.69,0,1,1-3.38,0Zm2.78,0h0a1.1,1.1,0,1,0-2.18,0h0a1.14,1.14,0,0,0,1.1,1.23A1.12,1.12,0,0,0,65.87,30.36Z" transform="translate(-32.05 -1.56)"/><path class="cls-2" d="M67,30.36h0a1.71,1.71,0,0,1,1.66-1.8,1.67,1.67,0,0,1,1.24.47l-.36.47a1.19,1.19,0,0,0-.9-.38,1.16,1.16,0,0,0-1,1.23h0a1.12,1.12,0,0,0,1.1,1.24,1.24,1.24,0,0,0,.78-.26v-.65h-.82v-.53H70v1.46a2,2,0,0,1-1.35.54A1.66,1.66,0,0,1,67,30.36Z" transform="translate(-32.05 -1.56)"/><path class="cls-2" d="M71.59,30.72,70.3,28.61H71l.9,1.54.91-1.54h.65L72.16,30.7v1.39h-.57Z" transform="translate(-32.05 -1.56)"/><path class="cls-2" d="M76.19,28.59h.53l1.42,3.5h-.6l-.33-.84H75.68l-.33.84h-.58ZM77,30.71l-.56-1.39-.55,1.39Z" transform="translate(-32.05 -1.56)"/><path class="cls-2" d="M78.55,28.61h.57v2.92h1.7v.56H78.55Z" transform="translate(-32.05 -1.56)"/><path class="cls-2" d="M81.27,28.61h.57v2.92h1.7v.56H81.27Z" transform="translate(-32.05 -1.56)"/><path class="cls-2" d="M84,28.61h.57v3.48H84Z" transform="translate(-32.05 -1.56)"/><path class="cls-2" d="M86.46,28.59H87l1.42,3.5h-.6l-.32-.84H86l-.33.84H85Zm.81,2.12-.56-1.39-.55,1.39Z" transform="translate(-32.05 -1.56)"/><path class="cls-2" d="M88.82,28.61h.53L91.08,31V28.61h.55v3.48h-.47l-1.78-2.47v2.47h-.56Z" transform="translate(-32.05 -1.56)"/><path class="cls-2" d="M92.18,30.36h0a1.7,1.7,0,0,1,1.67-1.8,1.65,1.65,0,0,1,1.26.54l-.36.46a1.26,1.26,0,0,0-.91-.44,1.14,1.14,0,0,0-1.06,1.23h0a1.14,1.14,0,0,0,1.06,1.23,1.25,1.25,0,0,0,.93-.44l.37.39a1.62,1.62,0,0,1-1.31.62A1.69,1.69,0,0,1,92.18,30.36Z" transform="translate(-32.05 -1.56)"/><path class="cls-2" d="M95.59,28.61H98v.55H96.16v.9h1.62v.55H96.16v.93H98v.55H95.59Z" transform="translate(-32.05 -1.56)"/><rect class="cls-3" x="4.1" y="34.01" width="15.7" height="2"/></svg>