<?xml version="1.0" encoding="UTF-8" standalone="no"?>
<!DOCTYPE svg PUBLIC "-//W3C//DTD SVG 20010904//EN" "http://www.w3.org/TR/2001/REC-SVG-20010904/DTD/svg10.dtd">
<svg version="1.0" xmlns="http://www.w3.org/2000/svg" width="2520.000000pt" height="2336.000000pt" viewBox="0 0 2520.000000 2336.000000" preserveAspectRatio="xMidYMid meet">
<metadata>
Created by potrace 1.15, written by Peter Selinger 2001-2017
</metadata>
<g transform="translate(0.000000,2336.000000) scale(0.100000,-0.100000)" fill="#000000" stroke="none">
<path d="M1660 14105 l0 -7775 -555 0 -555 0 0 -30 0 -30 574 0 c373 0 577 4 581 10 3 5 28 10 56 10 l49 0 0 2750 0 2750 2305 0 2305 0 0 70 0 70 -2305 0 -2305 0 0 3140 0 3140 3025 0 3025 0 0 -3140 0 -3140 -170 0 -170 0 0 505 c0 488 -1 505 -19 515 -26 14 -141 13 -141 -1 0 -7 18 -10 48 -7 l47 3 5 -555 c3 -305 9 -565 14 -577 l8 -23 259 0 259 0 0 4975 0 4975 1135 -2 1135 -3 3 -4935 2 -4935 1370 0 1370 0 3 68 3 67 -1301 0 -1300 0 0 1165 0 1165 1300 0 1300 0 0 70 0 70 -1300 0 -1300 0 2 1163 3 1162 1298 3 1298 2 -3 68 -3 67 -1295 2 -1295 3 0 1162 0 1163 1298 3 1297 2 0 65 0 65 -1297 2 -1298 3 -3 1168 -2 1167 2085 0 2085 0 0 -4940 0 -4940 1373 2 1372 3 3 67 3 68 -1303 2 -1303 3 0 1160 0 1160 1303 3 1302 2 0 70 0 70 -1302 2 -1303 3 0 1160 0 1160 1303 3 1303 2 -3 68 -3 67 -1295 3 c-712 1 -1298 6 -1302 10 -4 4 -7 528 -6 1163 l3 1154 1303 3 1302 2 0 65 0 65 -1302 2 -1303 3 0 1165 0 1165 2153 3 2152 2 0 -4975 0 -4975 595 0 c582 0 595 0 595 19 0 11 5 23 10 26 6 4 10 200 10 555 0 302 3 551 7 553 20 11 227 -23 310 -51 174 -59 296 -135 429 -267 102 -101 159 -179 215 -299 58 -124 90 -246 92 -348 2 -67 5 -88 16 -88 10 0 12 11 7 48 -12 92 41 296 111 427 52 98 202 295 225 295 3 0 20 13 37 29 63 59 290 191 328 191 7 0 21 4 31 9 34 17 94 33 147 38 30 3 55 10 55 16 0 30 -234 -34 -367 -100 -146 -73 -311 -217 -403 -353 -57 -84 -124 -226 -145 -306 -9 -38 -19 -76 -22 -84 -3 -8 -14 12 -24 45 -41 131 -53 162 -86 224 -53 100 -111 180 -182 255 -91 94 -154 141 -301 223 -41 23 -203 81 -240 85 -14 2 -30 7 -36 10 -22 14 -219 21 -242 9 l-22 -12 0 -504 0 -505 -505 0 -505 0 0 4905 0 4905 2170 0 2170 0 0 -4905 0 -4905 -540 0 -540 0 0 505 c0 488 -1 505 -19 515 -26 14 -141 13 -141 -1 0 -6 18 -9 48 -8 l47 3 3 -554 c2 -479 4 -555 17 -563 8 -4 15 -15 15 -22 0 -13 77 -15 555 -15 l555 0 0 -1315 0 -1315 38 0 c20 0 67 -3 105 -7 45 -4 67 -2 67 5 0 6 -15 12 -32 14 l-33 3 -3 6353 -2 6352 -11000 0 -11000 0 0 -7775z m6200 5940 l0 -1695 -3025 0 -3025 0 0 1695 0 1695 3025 0 3025 0 0 -1695z"/>
<path d="M4310 20933 c-1 -21 -1 -102 0 -180 l1 -142 -153 -3 -153 -3 -3 -42 -3 -43 -147 -1 c-81 0 -166 0 -189 1 l-43 2 0 -465 0 -464 338 -7 c185 -4 341 -11 345 -15 4 -4 7 -94 5 -199 -3 -165 -1 -192 12 -192 49 0 832 0 863 0 l38 0 -1 198 -2 197 59 3 c32 1 180 6 328 10 l270 7 0 460 0 460 -193 0 c-189 0 -193 0 -198 21 -3 12 -4 32 -2 45 l3 24 -132 3 -133 3 -2 177 -3 177 -452 3 -453 2 0 -37z m858 -175 l3 -148 -406 0 -405 0 0 143 c0 79 3 147 7 150 4 4 185 6 402 5 l396 -3 3 -147z m258 -245 c-3 -21 -6 -226 -6 -455 l0 -418 -675 0 -675 0 0 33 c0 17 -1 209 -1 426 0 216 -4 404 -9 416 -5 13 -6 26 -3 29 4 3 314 6 691 6 l685 0 -7 -37z m-1428 -459 c2 -334 0 -403 -12 -407 -7 -3 -78 -5 -157 -4 l-144 2 -3 408 -2 408 157 -3 158 -3 3 -401z m1820 -1 l-3 -408 -160 -1 c-107 -1 -162 3 -167 10 -10 14 -10 790 -1 799 3 4 80 7 170 7 l163 0 -2 -407z m-653 -651 l0 -162 -392 0 c-216 0 -397 0 -403 0 -11 0 -14 312 -3 323 4 4 185 6 402 5 l396 -3 0 -163z"/>
<path d="M10510 20585 l0 -1064 1264 0 c1010 1 1267 3 1276 13 7 9 9 120 8 332 l-3 319 -715 5 -715 5 0 115 0 115 198 3 197 2 0 460 0 460 -200 0 -199 0 -3 148 -3 147 -552 3 -553 2 0 -1065z m1050 1 c0 -906 -2 -1004 -16 -1010 -26 -10 -962 -7 -969 3 -4 7 -8 1481 -5 2001 0 7 172 10 495 10 l495 0 0 -1004z m408 305 c2 -309 -1 -396 -10 -403 -13 -9 -303 -9 -325 -1 -10 4 -13 94 -13 404 l0 399 173 -2 172 -3 3 -394z m1030 -1030 c2 -213 -1 -276 -10 -282 -15 -9 -1330 -12 -1353 -3 -13 5 -15 45 -15 278 0 150 3 276 7 279 3 4 313 6 687 5 l681 -3 3 -274z"/>
<path d="M14826 21643 c-3 -4 -6 -480 -6 -1059 0 -994 1 -1053 18 -1058 9 -3 580 -4 1267 -3 l1250 2 3 333 2 332 -710 0 -710 0 0 120 0 120 200 0 200 0 0 460 0 460 -200 0 -199 0 -3 148 -3 147 -551 2 c-304 1 -554 -1 -558 -4z m1049 -1063 l0 -1005 -495 0 -495 0 -3 995 c-1 547 0 1001 3 1008 3 10 108 12 497 10 l493 -3 0 -1005z m403 308 l-3 -403 -167 -3 -168 -2 0 405 0 405 170 0 170 0 -2 -402z m1030 -1030 l-3 -283 -675 -3 c-371 -1 -679 0 -685 2 -6 2 -9 104 -7 285 l3 281 684 0 685 0 -2 -282z"/>
<path d="M10510 18120 l0 -1060 1273 2 1272 3 3 309 c2 170 1 320 -3 333 l-5 23 -716 0 -715 0 3 113 3 112 198 3 197 2 0 460 0 460 -197 2 -198 3 -5 145 -5 145 -552 3 -553 2 0 -1060z m1050 5 c0 -547 0 -998 0 -1002 0 -5 -223 -8 -495 -8 -272 0 -495 3 -495 8 0 4 0 455 0 1002 l0 995 495 0 495 0 0 -995z m405 295 l0 -395 -172 -3 -173 -2 0 400 0 400 173 -2 172 -3 0 -395z m1033 -1032 l2 -278 -690 0 -690 0 0 273 c0 151 3 277 7 280 3 4 313 6 687 5 l681 -3 3 -277z"/>
<path d="M14827 19173 c-4 -3 -7 -480 -7 -1060 l0 -1053 1270 0 1270 0 -2 333 -3 332 -705 2 -705 3 -3 115 -3 115 201 0 200 0 0 460 0 460 -200 0 -199 0 -3 148 -3 147 -551 3 c-303 1 -554 -1 -557 -5z m1051 -1060 l2 -1003 -500 0 -500 0 0 1005 0 1005 498 -2 497 -3 3 -1002z m400 306 l-3 -400 -165 0 -165 0 -3 400 -2 401 170 0 170 0 -2 -401z m1032 -1029 l0 -280 -685 0 -685 0 0 280 0 280 685 0 685 0 0 -280z"/>
<path d="M20928 19088 c-2 -7 -3 -102 -2 -211 l1 -198 -59 -51 c-55 -48 -156 -165 -171 -198 -4 -8 -18 -33 -32 -55 -14 -22 -30 -51 -36 -65 -51 -115 -64 -157 -82 -265 l-12 -70 -175 -5 -175 -5 -3 -452 -2 -453 172 -2 173 -3 3 -247 2 -248 -175 0 -175 0 2 -457 3 -458 177 -3 176 -2 7 -53 c3 -28 10 -63 14 -77 5 -14 14 -43 21 -65 49 -156 148 -315 266 -424 l79 -72 0 -177 0 -177 468 -3 467 -2 0 148 0 148 68 44 c143 94 275 255 350 430 26 60 60 176 65 220 6 60 5 60 168 60 l149 0 0 460 0 460 -150 0 -150 0 2 248 3 247 148 3 147 3 0 454 0 455 -149 0 c-166 0 -153 -6 -166 75 -11 67 -63 224 -95 287 -75 148 -183 273 -309 358 l-80 55 -3 175 -3 175 -461 3 c-364 2 -463 0 -466 -10z m876 -64 c10 -26 7 -232 -4 -239 -5 -3 -42 5 -82 19 -215 71 -451 56 -651 -42 -43 -21 -79 -36 -81 -33 -6 12 -7 291 -1 301 4 6 146 10 410 10 358 0 404 -2 409 -16z m-200 -249 c232 -45 464 -226 582 -455 55 -107 74 -158 102 -280 16 -69 17 -171 17 -1220 0 -1227 2 -1169 -52 -1350 -46 -154 -129 -287 -250 -400 -72 -67 -226 -170 -255 -170 -8 0 -18 -4 -24 -9 -54 -48 -372 -64 -494 -24 -89 29 -127 46 -200 89 -72 42 -195 155 -251 230 -90 122 -163 300 -180 439 -6 50 -8 524 -6 1245 3 1148 3 1166 24 1235 26 89 41 128 76 202 24 52 103 163 153 215 99 104 183 162 300 209 146 58 303 74 458 44z m-1074 -1265 l0 -400 -145 0 -145 0 0 393 c0 217 3 397 7 400 3 4 69 7 145 7 l138 0 0 -400z m2070 0 l0 -400 -120 0 -120 0 0 393 c0 217 3 397 7 400 3 4 57 7 120 7 l113 0 0 -400z m-2072 -1412 l-3 -403 -140 0 -140 0 -3 390 c-1 214 0 396 3 402 3 10 42 13 145 13 l140 0 -2 -402z m2072 -3 l0 -405 -120 0 -120 0 0 398 c0 219 3 402 7 405 3 4 57 7 120 7 l113 0 0 -405z m-1449 -1261 c191 -67 387 -70 563 -8 38 13 76 24 83 24 11 0 13 -21 11 -102 l-3 -103 -410 0 -410 0 -3 110 c-2 61 0 120 3 133 l6 23 43 -26 c24 -14 76 -37 117 -51z"/>
<path d="M10510 15645 l0 -1065 1275 0 1275 0 -2 338 -3 337 -717 3 -718 2 0 115 0 115 200 0 200 0 0 460 0 460 -197 2 -198 3 -3 148 -3 147 -554 0 -555 0 0 -1065z m1050 10 c0 -547 0 -998 0 -1002 0 -5 -223 -8 -495 -8 -272 0 -495 3 -495 8 0 4 0 455 0 1002 l0 995 495 0 495 0 0 -995z m408 298 l-3 -398 -172 -3 -173 -2 0 400 0 400 175 0 175 0 -2 -397z m1030 -1035 l2 -278 -690 0 -690 0 0 280 0 280 688 -2 687 -3 3 -277z"/>
<path d="M14827 16703 c-4 -3 -7 -483 -7 -1065 l0 -1058 1270 0 1270 0 -2 338 -3 337 -707 3 -708 2 0 115 0 115 200 0 200 0 0 460 0 460 -200 0 -199 0 -3 148 -3 147 -551 3 c-303 1 -554 -1 -557 -5z m1051 -1055 l-3 -1003 -497 -3 -498 -2 0 1005 0 1005 500 0 500 0 -2 -1002z m402 302 l0 -400 -170 0 -170 0 0 400 0 400 170 0 170 0 0 -400z m1030 -1030 l0 -280 -685 0 -685 0 0 280 0 280 685 0 685 0 0 -280z"/>
<path d="M4300 15943 c-1 -21 -1 -102 -1 -180 l0 -142 -152 -3 -152 -3 -3 -42 -3 -43 -147 -1 c-81 0 -166 0 -189 1 l-43 2 0 -465 0 -464 338 -7 c185 -4 341 -11 345 -15 4 -4 7 -94 5 -199 -3 -165 -1 -192 12 -192 49 0 832 0 863 0 l38 0 -1 198 -2 197 59 3 c32 1 180 6 328 10 l270 7 0 460 0 460 -193 0 c-189 0 -193 0 -198 21 -3 12 -4 32 -2 45 l3 24 -132 3 -133 3 -2 177 -3 177 -452 3 -453 2 0 -37z m858 -175 l3 -148 -406 0 -405 0 0 143 c0 79 3 147 7 150 4 4 185 6 402 5 l396 -3 3 -147z m254 -215 c2 -5 2 -209 0 -455 l-3 -448 -674 0 c-533 0 -675 3 -675 13 0 6 -1 198 -1 425 0 227 -4 424 -9 437 -5 12 -6 26 -3 29 9 9 1361 7 1365 -1z m-1424 -489 c2 -334 0 -403 -12 -407 -7 -3 -78 -5 -157 -4 l-144 2 -3 408 -2 408 157 -3 158 -3 3 -401z m1820 -1 l-3 -408 -160 -1 c-107 -1 -162 3 -167 10 -10 14 -10 790 -1 799 3 4 80 7 170 7 l163 0 -2 -407z m-653 -651 l0 -162 -392 0 c-216 0 -397 0 -403 0 -11 0 -14 312 -3 323 4 4 185 6 402 5 l396 -3 0 -163z"/>
<path d="M10510 13185 c0 -580 0 -1058 0 -1062 0 -5 573 -8 1273 -8 l1272 0 0 335 0 335 -715 5 -715 5 -3 113 c-2 86 0 112 10 112 7 0 96 2 198 3 l185 2 5 457 c4 399 3 459 -10 463 -8 4 -87 6 -175 5 -88 -1 -172 -1 -187 -1 l-28 1 0 145 0 145 -555 0 -555 0 0 -1055z m1048 -8 l2 -1007 -495 2 c-272 2 -495 6 -495 11 0 4 0 457 0 1007 l0 1000 493 -2 492 -3 3 -1008z m400 705 c9 -7 12 -94 10 -403 l-3 -394 -170 0 -170 0 -3 394 c-2 309 1 396 10 403 7 4 81 8 163 8 83 0 156 -4 163 -8z m1040 -1429 l-3 -278 -687 -3 -688 -2 0 280 0 280 690 0 690 0 -2 -277z"/>
<path d="M14827 14233 c-4 -3 -7 -483 -7 -1065 l0 -1058 1270 0 1270 0 0 340 0 340 -710 0 -710 0 0 118 0 117 197 0 198 0 0 460 0 460 -195 2 -195 2 -5 143 -5 143 -551 3 c-303 1 -554 -1 -557 -5z m1048 -1053 l0 -1005 -497 -3 -498 -2 0 1003 c0 552 3 1007 7 1010 3 4 227 6 497 5 l491 -3 0 -1005z m403 303 l2 -403 -170 0 -170 0 0 405 0 405 168 -2 167 -3 3 -402z m1032 -1033 l0 -280 -686 2 -685 3 1 274 c0 151 2 277 4 280 2 3 311 5 685 3 l681 -2 0 -280z"/>
<path d="M7215 12934 c-33 -8 -69 -18 -80 -23 -11 -5 -42 -17 -70 -27 -213 -75 -438 -274 -559 -495 -41 -75 -78 -177 -100 -272 -18 -78 -21 -172 -6 -162 6 3 10 27 10 53 1 147 94 373 219 527 88 109 145 161 263 237 119 78 328 158 412 158 19 0 38 5 41 10 9 14 -58 11 -130 -6z"/>
<path d="M2590 11545 c-228 -64 -388 -255 -407 -485 -7 -88 10 -175 53 -269 44 -96 151 -204 245 -248 74 -35 187 -63 254 -63 119 0 278 61 371 143 68 60 154 198 154 247 0 10 5 22 10 25 13 8 13 194 -1 253 -42 180 -174 323 -356 384 -71 24 -99 28 -181 27 -53 -1 -117 -7 -142 -14z m291 -64 c167 -57 271 -161 323 -324 27 -80 32 -160 14 -217 -3 -8 -8 -33 -13 -55 -14 -69 -95 -184 -168 -240 -155 -118 -356 -137 -527 -50 -70 36 -181 143 -213 207 -99 195 -66 399 88 553 138 138 325 185 496 126z"/>
<path d="M3710 11005 l0 -455 465 0 465 0 -2 453 -3 452 -462 3 -463 2 0 -455z m870 -5 l0 -400 -405 0 c-223 0 -405 3 -405 8 -1 16 -1 777 -1 785 1 4 183 7 406 7 l405 0 0 -400z"/>
<path d="M4890 11005 l0 -455 465 0 465 0 0 455 0 455 -465 0 -465 0 0 -455z m870 -3 c0 -219 -2 -401 -4 -403 -2 -2 -185 -3 -405 -1 l-401 2 0 400 0 400 405 0 405 0 0 -398z"/>
<path d="M2252 9640 l3 -450 460 -1 460 -1 3 451 2 451 -465 0 -465 0 2 -450z m863 0 l0 -395 -402 -3 -403 -2 0 400 0 400 403 -2 402 -3 0 -395z"/>
<path d="M23745 9150 c3 -5 22 -10 41 -10 83 0 308 -77 395 -135 21 -14 41 -25 44 -25 32 0 238 -197 306 -293 102 -143 179 -362 179 -506 l0 -71 -567 -1 c-313 -1 -579 -4 -593 -8 -25 -7 -25 -8 -28 -139 l-3 -132 -2273 0 -2274 0 -6 -47 c-3 -27 -8 -69 -12 -95 -4 -32 -2 -48 5 -48 6 0 11 11 11 25 l0 25 2275 0 2275 0 0 -3035 0 -3035 -2972 2 -2973 3 -3 3033 -2 3032 135 0 135 0 0 -514 0 -513 31 -7 c40 -8 193 9 279 31 85 21 222 80 313 134 86 51 275 235 330 321 77 122 123 233 152 371 17 77 19 117 6 117 -4 0 -11 -22 -14 -50 -19 -161 -110 -366 -226 -511 -135 -169 -344 -303 -561 -362 -73 -20 -226 -41 -245 -33 -13 5 -15 74 -15 558 1 486 -1 553 -15 560 -8 5 -15 16 -15 23 0 13 -408 15 -3180 15 l-3180 0 0 -2440 0 -2440 58 0 c74 0 133 10 126 21 -3 5 -14 9 -25 9 -19 0 -21 6 -21 55 0 14 0 1067 1 2340 l1 2315 2898 -2 2897 -3 0 -3030 0 -3030 -2890 -3 c-1589 -1 -2894 0 -2900 2 -6 2 -9 48 -7 120 l3 116 524 0 c508 0 525 1 535 19 13 25 13 131 0 131 -5 0 -10 -20 -10 -45 l0 -45 -563 0 c-321 0 -567 -4 -572 -9 -6 -5 -19 -11 -30 -13 -19 -3 -20 -13 -25 -138 l-5 -135 -4843 -3 -4842 -2 0 1274 c0 1009 -3 1277 -12 1283 -7 4 -287 10 -623 13 l-610 5 3 65 c14 333 258 688 582 849 36 18 72 36 81 41 8 4 64 22 124 39 84 24 127 31 196 31 48 0 91 5 94 10 4 6 -18 10 -60 10 -188 0 -435 92 -611 228 -49 38 -105 87 -124 109 -68 77 -90 103 -90 106 0 2 -20 35 -45 73 -77 116 -145 321 -145 434 0 32 -4 62 -10 65 -16 10 -12 -105 6 -182 23 -102 40 -148 94 -258 96 -195 253 -354 460 -467 62 -34 197 -85 250 -95 13 -2 30 -9 37 -14 7 -6 17 -8 22 -5 5 4 12 2 16 -4 4 -6 -7 -10 -26 -10 -84 0 -268 -75 -404 -165 -118 -78 -249 -219 -327 -350 -82 -138 -138 -323 -138 -459 0 -47 2 -90 5 -98 4 -11 101 -12 533 -10 290 1 537 0 550 -3 l22 -5 0 -1325 0 -1325 11000 0 11000 0 0 3290 0 3290 533 2 532 3 3 80 c5 130 -46 323 -120 455 -154 272 -391 456 -693 536 -93 24 -181 32 -170 14z"/>
<path d="M2250 8475 l0 -455 463 2 462 3 3 453 2 452 -465 0 -465 0 0 -455z m865 5 l0 -395 -402 -3 -403 -2 0 400 0 400 403 -2 402 -3 0 -395z"/>
<path d="M16052 7133 l3 -348 548 -3 547 -2 0 350 0 350 -550 0 -550 0 2 -347z m1037 283 c8 -9 11 -95 9 -292 l-3 -279 -489 -3 c-385 -2 -491 0 -498 10 -13 22 -10 552 4 566 19 19 961 17 977 -2z"/>
<path d="M20670 6910 l0 -540 355 0 355 0 -2 538 -3 537 -352 3 -353 2 0 -540z m660 5 l0 -485 -300 0 -300 0 0 485 0 485 300 0 300 0 0 -485z"/>
<path d="M21590 6910 l0 -540 355 0 355 0 -2 538 -3 537 -352 3 -353 2 0 -540z m650 5 l0 -485 -300 2 -300 3 0 478 c0 262 0 479 0 482 0 3 135 5 300 5 l300 0 0 -485z"/>
<path d="M22500 6910 l0 -540 355 0 355 0 0 540 0 540 -355 0 -355 0 0 -540z m650 5 l0 -485 -295 2 -295 3 0 478 c0 262 0 479 0 482 0 3 133 5 295 5 l295 0 0 -485z"/>
<path d="M11892 6368 l3 -1063 555 0 555 0 3 1063 2 1062 -560 0 -560 0 2 -1062z m1063 -8 l0 -1005 -500 0 -500 0 -3 995 c-1 547 0 1001 3 1008 3 10 109 12 502 10 l498 -3 0 -1005z"/>
<path d="M9217 7383 c-4 -3 -7 -577 -7 -1275 l0 -1268 645 0 c355 0 648 0 653 0 4 0 9 187 12 415 l5 416 200 2 200 2 3 458 2 457 -205 0 -205 0 -2 398 -3 397 -646 3 c-355 1 -649 -1 -652 -5z m1241 -1275 l2 -1218 -596 -2 c-328 -2 -598 -1 -600 1 -2 2 -4 553 -4 1223 l0 1218 598 -2 597 -3 3 -1217z m412 23 c0 -321 -3 -400 -13 -404 -29 -11 -309 -8 -323 4 -12 9 -14 78 -14 399 0 212 3 390 7 393 3 4 82 7 175 7 l168 0 0 -399z"/>
<path d="M16052 6243 l3 -348 545 0 545 0 3 348 2 347 -550 0 -550 0 2 -347z m1043 -3 l0 -285 -495 0 -495 0 -3 275 c-1 151 0 280 3 287 3 11 105 13 497 11 l493 -3 0 -285z"/>
<path d="M16050 5345 l0 -345 550 0 550 0 0 345 0 345 -550 0 -550 0 0 -345z m1039 281 c8 -9 11 -94 9 -287 l-3 -274 -495 0 -495 0 -3 274 c-2 193 1 278 9 287 9 12 96 14 489 14 393 0 480 -2 489 -14z"/>
<path d="M14590 2980 l0 -1060 1270 0 1270 0 0 339 0 339 -702 1 c-387 1 -709 1 -716 1 -10 0 -12 26 -10 113 l3 112 198 3 197 2 0 455 0 455 -197 2 -198 3 -3 148 -3 147 -554 0 -555 0 0 -1060z m1051 0 l0 -995 -495 -3 -496 -2 0 1000 0 1000 496 -2 495 -3 0 -995z m401 692 c4 -4 7 -181 6 -393 l-3 -384 -163 -5 c-89 -3 -167 -3 -172 -2 -14 5 -14 789 0 794 22 7 323 -1 332 -10z m1026 -1414 c-2 -156 -6 -282 -10 -280 -5 1 -312 2 -683 2 l-675 0 0 273 c0 151 3 277 7 280 3 4 312 7 685 7 l678 0 -2 -282z"/>
<path d="M17840 2980 l0 -1060 560 0 560 0 0 1060 0 1060 -560 0 -560 0 0 -1060z m1060 0 l0 -1000 -500 0 -500 0 0 1000 0 1000 500 0 500 0 0 -1000z"/>
<path d="M20660 2980 l0 -1060 1275 0 1275 0 0 340 0 340 -711 0 c-392 0 -714 1 -716 4 -4 3 -7 179 -4 214 1 9 48 12 201 12 l200 0 0 455 0 455 -200 0 c-110 0 -200 3 -201 8 -1 4 -2 70 -3 147 l-1 140 -557 3 -558 2 0 -1060z m1057 -2 l2 -998 -500 0 -499 0 0 1000 0 1000 498 -2 497 -3 2 -997z m398 308 l0 -397 -163 0 c-89 0 -166 3 -171 6 -12 7 -13 766 -1 780 5 6 71 10 172 9 l163 -1 0 -397z m1035 -1026 l0 -280 -690 0 -690 0 2 268 c0 147 3 273 5 280 4 9 151 12 689 12 l684 0 0 -280z"/>
<path d="M11710 2962 c0 -4 39 -14 87 -21 142 -22 282 -78 418 -168 116 -77 181 -136 259 -237 99 -127 185 -320 202 -451 3 -27 11 -54 16 -60 18 -17 0 103 -28 190 -104 325 -334 561 -679 699 -39 15 -227 56 -259 56 -9 0 -16 -4 -16 -8z"/>
<path d="M2250 2405 l0 -455 465 0 465 0 0 455 0 455 -465 0 -465 0 0 -455z m870 0 l0 -395 -405 0 -405 0 0 395 0 395 405 0 405 0 0 -395z"/>
<path d="M3431 2405 l1 -455 464 0 464 0 0 455 0 455 -465 0 -466 0 2 -455z m874 0 l0 -390 -407 -3 -408 -2 0 395 0 395 408 -2 407 -3 0 -390z"/>
</g>
</svg>